<?xml version="1.0" encoding="UTF-8" standalone="no"?>
<!-- Created with Inkscape (http://www.inkscape.org/) -->

<svg
   width="32"
   height="32"
   viewBox="0 0 8.4666665 8.4666666"
   version="1.1"
   id="svg9160"
   inkscape:export-filename="favicon_mvaf.svg"
   inkscape:export-xdpi="96"
   inkscape:export-ydpi="96"
   inkscape:version="1.2 (dc2aedaf03, 2022-05-15)"
   sodipodi:docname="favicon.svg"
   xmlns:inkscape="http://www.inkscape.org/namespaces/inkscape"
   xmlns:sodipodi="http://sodipodi.sourceforge.net/DTD/sodipodi-0.dtd"
   xmlns="http://www.w3.org/2000/svg"
   xmlns:svg="http://www.w3.org/2000/svg">
  <sodipodi:namedview
     id="namedview9162"
     pagecolor="#ffffff"
     bordercolor="#000000"
     borderopacity="0.25"
     inkscape:showpageshadow="2"
     inkscape:pageopacity="0.0"
     inkscape:pagecheckerboard="0"
     inkscape:deskcolor="#d1d1d1"
     inkscape:document-units="mm"
     showgrid="false"
     inkscape:zoom="7.483165"
     inkscape:cx="24.454893"
     inkscape:cy="25.256693"
     inkscape:window-width="1366"
     inkscape:window-height="705"
     inkscape:window-x="-8"
     inkscape:window-y="-8"
     inkscape:window-maximized="1"
     inkscape:current-layer="layer1" />
  <defs
     id="defs9157" />
  <g
     inkscape:label="Capa 1"
     inkscape:groupmode="layer"
     id="layer1">
    <g
       id="g9155"
       transform="matrix(0.03405653,0,0,0.03405653,-6.0200217,0.72070353)">
      <path
         style="fill:#329df6;fill-opacity:1;stroke:#b1c7ac;stroke-width:0.5;stroke-dasharray:none;stroke-opacity:1"
         d="m 352.2674,44.973229 0.20052,12.00061"
         id="path5354"
         sodipodi:nodetypes="cc" />
      <path
         style="fill:#329df6;fill-opacity:1;stroke-width:0.79375"
         d="m 253.59963,227.44427 h 8.80045 l 9.60049,-41.20211 -2.00011,-42.00214 h -6.40032 L 260.8,186.24217 Z"
         id="path464"
         sodipodi:nodetypes="ccccccc" />
      <path
         style="fill:#329df6;fill-opacity:1;stroke-width:0.79375"
         d="m 310.66528,227.44413 h -8.80044 l -9.6005,-41.20211 2.00011,-42.00214 h 6.40032 l 2.80015,42.00215 z"
         id="path464-9"
         sodipodi:nodetypes="ccccccc" />
      <rect
         style="fill:#329df6;fill-opacity:1;stroke-width:0.639942"
         id="rect518"
         width="51.848732"
         height="4.6345496"
         x="257.59982"
         y="139.83978" />
      <rect
         style="fill:#329df6;fill-opacity:1;stroke-width:0.752265"
         id="rect520"
         width="52.083061"
         height="23.03549"
         x="252.39957"
         y="117.43866" />
      <path
         style="fill:#329df6;fill-opacity:1;stroke-width:0.79375"
         d="m 272.7279,63.673885 26.19545,53.893915 -11.36626,0.40002 -17.395,-54.459629 z"
         id="path524"
         sodipodi:nodetypes="ccccc" />
      <path
         style="fill:#329df6;fill-opacity:1;stroke-width:0.64857"
         d="m 281.3577,185.15961 -4.38247,-41.77299 10.21444,2.6e-4 -3.61567,41.63473 z"
         id="path524-7"
         sodipodi:nodetypes="ccccc" />
      <rect
         style="fill:#329df6;fill-opacity:1;stroke-width:0.999056"
         id="rect526"
         width="1.7127879"
         height="57.531654"
         x="282.58075"
         y="51.149849"
         transform="matrix(0.99860756,0.05275361,-0.27403041,0.96172103,0,0)" />
      <rect
         style="fill:#329df6;fill-opacity:1;stroke-width:0.83209"
         id="rect526-0"
         width="1.39492"
         height="49.002934"
         x="123.33696"
         y="248.99269"
         transform="matrix(0.62521307,-0.78045411,0.77338486,0.63393679,0,0)" />
      <rect
         style="fill:#329df6;fill-opacity:1;stroke-width:1.17957"
         id="rect526-9"
         width="2.0177631"
         height="68.077988"
         x="-336.02069"
         y="-2.7445736"
         transform="matrix(-0.99859408,0.05300809,0.27280959,0.96206805,0,0)" />
      <rect
         style="fill:#329df6;fill-opacity:1;stroke-width:0.893716"
         id="rect526-9-1"
         width="1.6340204"
         height="57.647621"
         x="-355.04578"
         y="-52.341106"
         transform="matrix(-0.99360158,-0.11294202,0.08910194,0.99602251,0,0)" />
      <rect
         style="fill:#329df6;fill-opacity:1;stroke-width:1.4046"
         id="rect526-8"
         width="4.6085401"
         height="104.05752"
         x="251.25218"
         y="-253.74377"
         transform="matrix(0.70447346,0.70973033,-0.61802277,0.7861602,0,0)" />
      <rect
         style="fill:#329df6;fill-opacity:1;stroke-width:0.999062"
         id="rect526-9-5"
         width="1.5220314"
         height="15.993021"
         x="-203.26541"
         y="225.4496"
         transform="matrix(-0.71476194,0.69936783,0.84109622,0.54088552,0,0)" />
      <path
         style="fill:#329df6;fill-opacity:1;stroke-width:0.79375"
         d="m 297.86463,120.9771 0.80004,-0.80004 14.40074,-30.801571 24.40123,-99.605079 h -1.60007 l -31.60161,95.604885 z"
         id="path464-0"
         sodipodi:nodetypes="ccccccc" />
      <rect
         style="fill:#329df6;fill-opacity:1;stroke-width:1.01198"
         id="rect673"
         width="26.381886"
         height="7.1773214"
         x="194.81584"
         y="170.49036"
         transform="matrix(0.89973131,-0.43644423,0.42480865,0.90528317,0,0)" />
      <rect
         style="fill:#329df6;fill-opacity:1;stroke-width:0.880561"
         id="rect673-3"
         width="25.599831"
         height="5.6002874"
         x="276.09628"
         y="171.72502"
         transform="matrix(0.9993363,0.03642742,-0.03690377,0.99931882,0,0)" />
      <rect
         style="fill:#329df6;fill-opacity:1;stroke-width:0.261105"
         id="rect673-36"
         width="10.092859"
         height="1.2489576"
         x="-332.93747"
         y="-113.95395"
         transform="matrix(-0.93500918,0.3546235,-0.31515948,-0.94903872,0,0)" />
      <rect
         style="fill:#329df6;fill-opacity:1;stroke-width:0.24063"
         id="rect673-36-2"
         width="8.4714146"
         height="1.2637827"
         x="-377.10663"
         y="-165.59872"
         transform="matrix(-0.90145707,0.43286851,-0.04661551,-0.99891291,0,0)" />
      <rect
         style="fill:#329df6;fill-opacity:1;stroke-width:0.196891"
         id="rect673-36-2-2"
         width="7.3585534"
         height="0.97406477"
         x="-369.63297"
         y="-153.77678"
         transform="matrix(-0.92335282,0.38395256,-0.05381139,-0.99855112,0,0)" />
      <circle
         style="fill:#329df6;fill-opacity:1;stroke:none;stroke-width:0.499999;stroke-dasharray:none;stroke-opacity:1"
         id="path6136"
         cx="352.4296"
         cy="57.773876"
         r="2.000102" />
      <circle
         style="fill:#329df6;fill-opacity:1;stroke:none;stroke-width:0.12222;stroke-dasharray:none;stroke-opacity:1"
         id="path6136-6"
         cx="352.50546"
         cy="59.982594"
         r="0.48890492" />
    </g>
  </g>
</svg>
